<svg width="217" height="81" viewBox="0 0 217 81" fill="none" xmlns="http://www.w3.org/2000/svg">
<path d="M180.524 36.6485C188.83 25.3245 203.2 6.06901 205.412 3.22627C207.976 -0.0693846 211.418 -0.626001 214.465 1.61513C217.396 3.78191 217.893 6.9954 215.39 10.3723C203.506 26.4045 197.641 33.7246 185.605 49.6404C182.454 53.8086 178.519 53.6736 175.205 49.5377C170.524 43.7009 165.919 37.8012 161.391 31.8385C158.813 28.4519 159.201 24.8491 162.137 22.7087C165.074 20.5684 168.557 21.2414 171.185 24.5586C174.264 28.449 177.255 32.4079 180.524 36.6485Z" fill="#99BC29"/>
<path d="M20.8651 32.1633C20.3185 32.225 19.7995 32.4361 19.3648 32.7734C18.9301 33.1107 18.5965 33.5613 18.4005 34.0757L12.1541 49.8624L5.90769 34.0601C5.69254 33.4941 5.31121 33.0065 4.8139 32.6617C4.31659 32.3168 3.72661 32.1308 3.12163 32.1281C2.33434 32.1177 1.57294 32.4094 0.99377 32.9433C0.414596 33.4773 0.0615863 34.2129 0.00721612 34.9992C-0.0248591 35.4764 0.050271 35.9547 0.22709 36.399L9.31526 56.9771C9.55324 57.5336 9.94919 58.008 10.454 58.3414C10.9588 58.6748 11.5503 58.8525 12.1551 58.8525C12.7599 58.8525 13.3513 58.6748 13.8561 58.3414C14.361 58.008 14.7569 57.5336 14.9949 56.9771L24.0831 36.399C24.2235 36.047 24.2999 35.6726 24.3088 35.2936C24.311 34.8547 24.221 34.4203 24.0446 34.0185C23.8682 33.6167 23.6094 33.2565 23.2849 32.9613C22.9605 32.6661 22.5776 32.4425 22.1612 32.305C21.7448 32.1675 21.3042 32.1193 20.868 32.1633H20.8651Z" fill="#235274"/>
<path d="M41.2283 31.8023C37.423 31.8023 35.0386 33.5632 33.9597 35.2144V24.0665C33.967 23.6587 33.893 23.2536 33.7422 22.8747C33.5913 22.4958 33.3665 22.1508 33.081 21.8599C32.7955 21.5689 32.4549 21.3378 32.0792 21.18C31.7035 21.0223 31.3001 20.941 30.8927 20.941C30.4853 20.941 30.0819 21.0223 29.7062 21.18C29.3305 21.3378 28.9899 21.5689 28.7044 21.8599C28.4189 22.1508 28.1941 22.4958 28.0432 22.8747C27.8924 23.2536 27.8184 23.6587 27.8257 24.0665V55.8981C27.8573 56.6912 28.1943 57.4412 28.766 57.9912C29.3377 58.5411 30.0998 58.8482 30.8927 58.8482C31.6856 58.8482 32.4477 58.5411 33.0194 57.9912C33.5911 57.4412 33.9281 56.6912 33.9597 55.8981V43.2203C33.9597 39.8669 35.3796 37.3656 39.6393 37.3656C43.3303 37.3656 44.6369 39.5812 44.6369 42.8211V55.8972C44.628 56.2975 44.7022 56.6953 44.8548 57.0655C45.0074 57.4357 45.235 57.7702 45.5233 58.0478C45.8115 58.3255 46.1542 58.5402 46.5296 58.6786C46.9051 58.8169 47.3051 58.8757 47.7044 58.8514C48.1013 58.866 48.4971 58.8004 48.8682 58.6586C49.2393 58.5168 49.5781 58.3016 49.8644 58.0259C50.1506 57.7502 50.3785 57.4197 50.5344 57.0539C50.6903 56.6882 50.7711 56.2948 50.7719 55.8972V41.6844C50.768 36.7395 48.9513 31.8023 41.2283 31.8023Z" fill="#235274"/>
<path d="M65.5809 43.903C61.8587 42.6137 58.3426 41.3958 58.3426 38.1579C58.3426 34.3653 62.1714 33.8038 64.4532 33.8038C65.7669 33.7379 67.0792 33.9595 68.2987 34.4529C69.5182 34.9464 70.6156 35.7 71.5146 36.6612C71.6271 36.7845 71.7646 36.8822 71.9181 36.9477C72.0715 37.0131 72.2372 37.0449 72.4039 37.0407C72.7367 37.0342 73.0541 36.899 73.2895 36.6634C73.5249 36.4277 73.66 36.11 73.6665 35.7769C73.6654 35.4345 73.5368 35.1049 73.3059 34.8524C71.1892 32.4685 68.2087 31.2623 64.4473 31.2623C58.97 31.2623 55.5673 33.9035 55.5673 38.1618C55.5673 43.2584 60.3967 44.9634 64.6555 46.4699C68.3308 47.767 71.8039 48.9986 71.8039 52.0938C71.8039 56.4752 67.335 57.1307 64.6702 57.1307C60.9948 57.1307 58.5361 56.128 56.4165 53.7626C56.3024 53.6417 56.1648 53.5453 56.0123 53.4792C55.8598 53.4131 55.6954 53.3787 55.5292 53.3782C55.1938 53.3832 54.8736 53.5188 54.6365 53.7562C54.3993 53.9936 54.2638 54.3142 54.2588 54.6499C54.2578 54.9735 54.3745 55.2865 54.5871 55.5303C56.0862 57.5914 59.785 59.6711 64.6721 59.6711C70.8726 59.6711 74.5753 56.8343 74.5753 52.0859C74.5841 47.0236 69.8006 45.3655 65.5809 43.903Z" fill="#235274"/>
<path d="M112.541 43.903C108.819 42.6137 105.303 41.3958 105.303 38.1579C105.303 34.3653 109.133 33.8038 111.414 33.8038C112.727 33.7379 114.04 33.9594 115.259 34.4529C116.479 34.9464 117.576 35.7 118.475 36.6612C118.587 36.785 118.725 36.8833 118.878 36.9493C119.032 37.0153 119.197 37.0475 119.364 37.0437C119.699 37.0392 120.018 36.9048 120.255 36.669C120.492 36.4331 120.628 36.1143 120.635 35.7798C120.634 35.4375 120.505 35.1079 120.274 34.8554C118.151 32.4675 115.17 31.2614 111.412 31.2614C105.934 31.2614 102.532 33.9026 102.532 38.1608C102.532 43.2574 107.361 44.9624 111.62 46.4689C115.295 47.7661 118.768 48.9977 118.768 52.0928C118.768 56.4743 114.299 57.1297 111.634 57.1297C107.959 57.1297 105.5 56.127 103.381 53.7616C103.267 53.6408 103.129 53.5443 102.977 53.4783C102.824 53.4122 102.66 53.3778 102.494 53.3772C102.16 53.3842 101.841 53.5207 101.606 53.7579C101.37 53.9951 101.236 54.3145 101.231 54.6489C101.23 54.9725 101.347 55.2855 101.559 55.5293C103.058 57.5904 106.757 59.6701 111.644 59.6701C117.845 59.6701 121.547 56.8333 121.547 52.0849C121.544 47.0236 116.765 45.3655 112.541 43.903Z" fill="#235274"/>
<path d="M98.4118 31.5999C98.1273 31.599 97.8496 31.6869 97.6174 31.8513C97.3851 32.0158 97.2099 32.2486 97.116 32.5174L92.1957 44.7228L88.0826 54.6724L79.1556 32.5341C79.0641 32.2615 78.8892 32.0247 78.6558 31.8572C78.4223 31.6897 78.1422 31.6 77.8549 31.6008C77.489 31.6059 77.1395 31.7537 76.8807 32.0127C76.6219 32.2718 76.4743 32.6216 76.4692 32.988C76.4784 33.2155 76.5305 33.4392 76.6226 33.6473L86.6666 58.0806L82.1293 69.0367C82.028 69.2546 81.9703 69.4903 81.9593 69.7303C81.9643 70.0966 82.1119 70.4465 82.3707 70.7056C82.6295 70.9646 82.979 71.1124 83.345 71.1175C83.6292 71.1185 83.9067 71.0309 84.139 70.8668C84.3712 70.7027 84.5466 70.4703 84.6408 70.2018L89.5591 57.9896L99.6304 33.6806C99.7316 33.4626 99.7894 33.2271 99.8004 32.987C99.7959 32.62 99.648 32.2694 99.3885 32.0102C99.129 31.7509 98.7784 31.6037 98.4118 31.5999Z" fill="#235274"/>
<path d="M177.208 80.2649C170.318 80.2602 163.53 78.6093 157.406 75.4494C151.282 72.2895 146.001 67.712 142 62.0974C137.999 56.4827 135.396 49.9932 134.405 43.1684C133.414 36.3436 134.065 29.3806 136.304 22.8584C136.52 22.1668 136.872 21.5256 137.34 20.9726C137.807 20.4196 138.381 19.9661 139.027 19.6389C139.673 19.3117 140.377 19.1176 141.099 19.0678C141.822 19.0181 142.546 19.1138 143.231 19.3494C143.915 19.5849 144.546 19.9555 145.084 20.4392C145.623 20.9228 146.06 21.5098 146.368 22.1653C146.676 22.8208 146.85 23.5315 146.879 24.2555C146.909 24.9794 146.792 25.7018 146.538 26.38C144.071 33.5473 144.188 41.3526 146.868 48.4427C149.547 55.5329 154.621 61.461 161.208 65.1996C167.796 68.9381 175.483 70.2513 182.937 68.9116C190.39 67.5718 197.141 63.6636 202.018 57.8644C202.473 57.3111 203.033 56.8538 203.666 56.5188C204.299 56.1839 204.992 55.9779 205.705 55.913C206.418 55.848 207.137 55.9253 207.82 56.1404C208.503 56.3555 209.137 56.7041 209.684 57.166C210.232 57.6279 210.682 58.194 211.01 58.8314C211.337 59.4688 211.535 60.1649 211.592 60.8794C211.648 61.5939 211.563 62.3126 211.34 62.9938C211.118 63.675 210.762 64.3052 210.295 64.848C206.238 69.6797 201.174 73.5636 195.458 76.227C189.742 78.8904 183.513 80.2687 177.208 80.2649Z" fill="#235274"/>
</svg>
